<svg width="14" height="14" viewBox="0 0 14 14" fill="none" xmlns="http://www.w3.org/2000/svg">
<path d="M7.58317 9.625H6.4165C5.93234 9.625 5.5415 10.0158 5.5415 10.5V12.5417H8.45817V10.5C8.45817 10.0158 8.06734 9.625 7.58317 9.625Z" stroke="#64B6AC" stroke-miterlimit="10" stroke-linejoin="round"/>
<path d="M5.8744 1.64498L1.8319 4.88248C1.3769 5.24415 1.08524 6.00832 1.1844 6.57998L1.96024 11.2233C2.10024 12.0516 2.89357 12.7225 3.73357 12.7225H10.2669C11.1011 12.7225 11.9002 12.0458 12.0402 11.2233L12.8161 6.57998C12.9094 6.00832 12.6177 5.24415 12.1686 4.88248L8.12607 1.65082C7.5019 1.14915 6.49274 1.14915 5.8744 1.64498Z" stroke="#64B6AC" stroke-linecap="round" stroke-linejoin="round"/>
</svg>
