<svg width="8" height="13" viewBox="0 0 8 13" fill="none" xmlns="http://www.w3.org/2000/svg">
<path opacity="0.4" d="M7.73994 1.67267C8.11145 1.26402 8.08133 0.631567 7.67267 0.26006C7.26402 -0.111447 6.63157 -0.0813304 6.26006 0.327327L7.73994 1.67267ZM2 6.5L1.26006 5.82733L0.648539 6.5L1.26006 7.17267L2 6.5ZM6.26006 12.6727C6.63157 13.0813 7.26402 13.1114 7.67267 12.7399C8.08133 12.3684 8.11145 11.736 7.73994 11.3273L6.26006 12.6727ZM6.26006 0.327327L1.26006 5.82733L2.73994 7.17267L7.73994 1.67267L6.26006 0.327327ZM1.26006 7.17267L6.26006 12.6727L7.73994 11.3273L2.73994 5.82733L1.26006 7.17267Z"/>
</svg>
