<svg width="18" height="19" viewBox="0 0 18 19" fill="none" xmlns="http://www.w3.org/2000/svg">
<path d="M6.6075 2L3.8925 4.7225" stroke-miterlimit="10" stroke-linecap="round" stroke-linejoin="round"/>
<path d="M11.3925 2L14.1075 4.7225" stroke-miterlimit="10" stroke-linecap="round" stroke-linejoin="round"/>
<path d="M1.5 6.3875C1.5 5 2.2425 4.8875 3.165 4.8875H14.835C15.7575 4.8875 16.5 5 16.5 6.3875C16.5 8 15.7575 7.8875 14.835 7.8875H3.165C2.2425 7.8875 1.5 8 1.5 6.3875Z"/>
<path d="M7.32001 11V13.6625" stroke-linecap="round"/>
<path d="M10.77 11V13.6625" stroke-linecap="round"/>
<path d="M2.625 8L3.6825 14.48C3.9225 15.935 4.5 17 6.645 17H11.1675C13.5 17 13.845 15.98 14.115 14.57L15.375 8" stroke-linecap="round"/>
</svg>
