<svg width="18" height="19" viewBox="0 0 18 19" fill="none" xmlns="http://www.w3.org/2000/svg">
<path d="M13.5 5.87C13.455 5.8625 13.4025 5.8625 13.3575 5.87C12.3225 5.8325 11.4975 4.985 11.4975 3.935C11.4975 2.8625 12.36 2 13.4325 2C14.505 2 15.3675 2.87 15.3675 3.935C15.36 4.985 14.535 5.8325 13.5 5.87Z" stroke-linecap="round" stroke-linejoin="round"/>
<path d="M12.7275 11.33C13.755 11.5025 14.8875 11.3225 15.6825 10.79C16.74 10.085 16.74 8.93001 15.6825 8.22501C14.88 7.69251 13.7325 7.5125 12.705 7.6925" stroke-linecap="round" stroke-linejoin="round"/>
<path d="M4.4775 5.87C4.5225 5.8625 4.575 5.8625 4.62 5.87C5.655 5.8325 6.48 4.985 6.48 3.935C6.48 2.8625 5.6175 2 4.545 2C3.4725 2 2.61 2.87 2.61 3.935C2.6175 4.985 3.4425 5.8325 4.4775 5.87Z" stroke-linecap="round" stroke-linejoin="round"/>
<path d="M5.25 11.33C4.2225 11.5025 3.09 11.3225 2.295 10.79C1.2375 10.085 1.2375 8.93001 2.295 8.22501C3.0975 7.69251 4.245 7.5125 5.2725 7.6925" stroke-linecap="round" stroke-linejoin="round"/>
<path d="M9.00001 11.4725C8.95501 11.465 8.90251 11.465 8.85751 11.4725C7.82251 11.435 6.99751 10.5875 6.99751 9.5375C6.99751 8.465 7.86001 7.6025 8.93251 7.6025C10.005 7.6025 10.8675 8.4725 10.8675 9.5375C10.86 10.5875 10.035 11.4425 9.00001 11.4725Z" stroke-linecap="round" stroke-linejoin="round"/>
<path d="M6.81751 13.835C5.76001 14.54 5.76001 15.695 6.81751 16.4C8.01751 17.2025 9.98251 17.2025 11.1825 16.4C12.24 15.695 12.24 14.54 11.1825 13.835C9.99001 13.04 8.01751 13.04 6.81751 13.835Z" stroke-linecap="round" stroke-linejoin="round"/>
</svg>
