<svg width="43" height="78" viewBox="0 0 43 78" fill="none" xmlns="http://www.w3.org/2000/svg">
<path fill-rule="evenodd" clip-rule="evenodd" d="M1.48162 57.5719C2.04382 56.2921 3.09232 55.2822 4.40081 54.7603C5.70931 54.2383 7.17285 54.2461 8.47557 54.782L39.1554 67.6751C40.4483 68.2277 41.4691 69.2616 41.9971 70.5531C42.525 71.8445 42.5176 73.2896 41.9764 74.5756V74.5756C41.4142 75.8555 40.3657 76.8654 39.0572 77.3873C37.7487 77.9093 36.2851 77.9015 34.9824 77.3656L4.30257 64.489C3.00261 63.9398 1.97576 62.9035 1.44699 61.607C0.918233 60.3104 0.930682 58.8594 1.48162 57.5719V57.5719ZM12.8322 4.82764H6.7229C1.43154 4.82764 -3.00852 14.5015 6.7229 18.2655L34.5651 28.9299C39.8565 31.241 42.5439 29.095 42.5439 23.5812V11.9097C42.5439 7.79912 40.3739 4.82764 36.468 4.82764H30.7927V3.02823C30.8383 2.64665 30.7958 2.25981 30.6685 1.8968C30.5412 1.5338 30.3323 1.20403 30.0576 0.932337C29.7829 0.660644 29.4495 0.454065 29.0824 0.328134C28.7154 0.202203 28.3242 0.160191 27.9384 0.205258H15.7032C15.3058 0.188938 14.9096 0.257415 14.5413 0.406021C14.1731 0.554627 13.8416 0.779892 13.5692 1.0665C13.2968 1.3531 13.09 1.69436 12.9628 2.06704C12.8357 2.43972 12.7911 2.8351 12.8322 3.22632V4.82764Z" fill="#FDC300"/>
<path fill-rule="evenodd" clip-rule="evenodd" d="M1.5484 41.6909C2.10714 40.4081 3.15534 39.3954 4.46505 38.873C5.77477 38.3505 7.24008 38.3606 8.54233 38.9009L39.2055 51.794C40.5055 52.3435 41.5333 53.3789 42.0648 54.6745C42.5963 55.9701 42.5885 57.421 42.0432 58.711V58.711C41.481 59.9909 40.4324 61.0007 39.124 61.5227C37.8155 62.0447 36.3519 62.0369 35.0492 61.5009L4.36934 48.6079C3.07057 48.0621 2.04396 47.0288 1.51502 45.735C0.986088 44.4411 0.998091 42.9925 1.5484 41.7074V41.6909ZM1.5484 25.7933C0.998091 27.0784 0.986088 28.527 1.51502 29.8209C2.04396 31.1147 3.07057 32.1481 4.36934 32.6938L35.116 45.6694C35.7678 45.9396 36.4672 46.0797 37.174 46.0814C37.8808 46.0832 38.5809 45.9467 39.2341 45.6797C39.8873 45.4127 40.4806 45.0205 40.9799 44.5257C41.4792 44.031 41.8746 43.4435 42.1433 42.7969V42.7969C42.6887 41.507 42.6964 40.0561 42.1649 38.7604C41.6334 37.4648 40.6057 36.4294 39.3057 35.8799L8.59242 22.9869C7.29045 22.4481 5.82582 22.4409 4.51848 22.9667C3.21114 23.4926 2.16736 24.5087 1.61517 25.7933H1.5484Z" fill="white"/>
</svg>
