<svg width="139" height="24" viewBox="0 0 139 24" fill="none" xmlns="http://www.w3.org/2000/svg">
<path fill-rule="evenodd" clip-rule="evenodd" d="M1.34721 15.8836C1.46477 15.616 1.68402 15.4048 1.95764 15.2957C2.23126 15.1865 2.53731 15.1881 2.80972 15.3002L9.22523 17.9963C9.49558 18.1119 9.70906 18.3281 9.81945 18.5981C9.92985 18.8682 9.9283 19.1704 9.81512 19.4393V19.4393C9.69756 19.7069 9.47831 19.9181 9.20469 20.0272C8.93107 20.1364 8.62502 20.1348 8.35261 20.0227L1.9371 17.33C1.66526 17.2152 1.45054 16.9985 1.33996 16.7274C1.22939 16.4563 1.232 16.1528 1.34721 15.8836V15.8836ZM3.72074 4.85417H2.44322C1.33673 4.85417 0.408265 6.8771 2.44322 7.66418L8.26535 9.89423C9.37183 10.3775 9.9338 9.92875 9.9338 8.77575V6.33512C9.9338 5.47554 9.48003 4.85417 8.66326 4.85417H7.4765V4.4779C7.48603 4.3981 7.47714 4.31721 7.45052 4.2413C7.42389 4.16539 7.38021 4.09644 7.32277 4.03962C7.26532 3.98281 7.1956 3.93961 7.11885 3.91328C7.0421 3.88694 6.9603 3.87816 6.87962 3.88758H4.3211C4.23801 3.88417 4.15514 3.89849 4.07814 3.92956C4.00114 3.96064 3.93181 4.00774 3.87485 4.06768C3.8179 4.12761 3.77465 4.19897 3.74806 4.2769C3.72147 4.35483 3.71215 4.43751 3.72074 4.51932V4.85417Z" fill="#FDC300"/>
<path fill-rule="evenodd" clip-rule="evenodd" d="M1.36117 12.5627C1.47801 12.2945 1.6972 12.0827 1.97107 11.9734C2.24495 11.8642 2.55136 11.8663 2.82368 11.9793L9.2357 14.6754C9.50755 14.7903 9.72246 15.0068 9.83361 15.2777C9.94475 15.5487 9.94313 15.852 9.82909 16.1218V16.1218C9.71152 16.3894 9.49227 16.6006 9.21865 16.7098C8.94503 16.8189 8.63898 16.8173 8.36657 16.7052L1.95106 14.0091C1.67947 13.895 1.4648 13.6789 1.35419 13.4084C1.24358 13.1378 1.24609 12.8349 1.36117 12.5661V12.5627ZM1.36117 9.23832C1.24609 9.50705 1.24358 9.80998 1.35419 10.0805C1.4648 10.3511 1.67947 10.5672 1.95106 10.6813L8.38053 13.3946C8.51684 13.4512 8.6631 13.4804 8.81089 13.4808C8.95869 13.4812 9.1051 13.4526 9.24169 13.3968C9.37827 13.341 9.50235 13.259 9.60675 13.1555C9.71116 13.052 9.79384 12.9292 9.85003 12.794V12.794C9.96407 12.5242 9.9657 12.2208 9.85455 11.9499C9.7434 11.679 9.52849 11.4625 9.25665 11.3476L2.83415 8.65147C2.5619 8.53881 2.25563 8.5373 1.98225 8.64726C1.70887 8.75722 1.4906 8.96971 1.37513 9.23832H1.36117Z" fill="white"/>
<path fill-rule="evenodd" clip-rule="evenodd" d="M16.2446 7.76082C16.1079 7.90114 15.9261 7.99002 15.7304 8.01222C15.5347 8.03442 15.3373 7.98854 15.172 7.88247C15.0068 7.7764 14.884 7.61676 14.8248 7.43093C14.7656 7.24511 14.7736 7.04469 14.8475 6.86409C14.9215 6.68349 15.0566 6.53396 15.2299 6.44118C15.4031 6.3484 15.6036 6.31815 15.7969 6.35562C15.9902 6.39309 16.1643 6.49595 16.2893 6.64653C16.4143 6.79712 16.4824 6.98604 16.482 7.18087C16.483 7.28824 16.4625 7.39475 16.4218 7.49428C16.3811 7.59381 16.3209 7.68439 16.2446 7.76082V7.76082Z" fill="#FDC300"/>
<path fill-rule="evenodd" clip-rule="evenodd" d="M14.9287 18.6283V10.0068H17.5439V18.6283H14.9287ZM96.2885 6.58359L92.1926 14.0133V18.6536H89.4044V14.0133L85.3085 6.58359H88.5134L90.8273 11.224L93.1477 6.58359H96.2885ZM81.4049 18.6283L79.1038 14.6599H77.777V18.6283H74.9887V6.58359H79.873C80.423 6.58106 80.9682 6.68645 81.4768 6.89367C81.9854 7.10089 82.4474 7.40582 82.8361 7.7908C83.2247 8.17579 83.5323 8.63318 83.7411 9.13652C83.9498 9.63985 84.0556 10.1791 84.0522 10.7232C84.0472 11.4513 83.8242 12.1616 83.4112 12.7644C83.0073 13.3833 82.4458 13.8862 81.7831 14.2225L84.3791 18.66L81.4049 18.6283ZM77.777 9.11932V12.2256H79.873C80.0597 12.2257 80.2442 12.1855 80.4136 12.1078C80.583 12.03 80.7332 11.9166 80.8537 11.7755C81.1179 11.4674 81.263 11.0765 81.263 10.6724C81.263 10.2684 81.1179 9.87752 80.8537 9.5694C80.7332 9.42826 80.583 9.31486 80.4136 9.23712C80.2442 9.15937 80.0597 9.11917 79.873 9.11932H77.777ZM67.5533 15.9658H72.4312V18.622H64.7394V6.57724H72.3222V9.23342H67.5277V11.2303H71.8863V13.8548H67.5277V15.9658H67.5533ZM62.5536 6.55188V9.20806H59.4449V18.6283H56.6246V9.2144H53.4902V6.55823L62.5536 6.55188ZM52.1505 6.55188V9.20806H49.0097V18.6283H46.2214V9.2144H43.087V6.55823L52.1505 6.55188ZM39.9398 18.5966L39.2988 16.6948H34.6068L33.9659 18.5966H30.9212L35.0684 6.55188H38.6258L42.7794 18.5966H39.9398ZM35.4529 14.1147H38.4079L36.8823 9.67716L35.4529 14.1147V14.1147ZM28.1137 12.3397C28.5875 12.6181 28.9768 13.0176 29.2407 13.4961C29.5046 13.9746 29.6334 14.5145 29.6136 15.0593C29.6256 15.5386 29.5301 16.0145 29.3339 16.453C29.1377 16.8914 28.8458 17.2814 28.4791 17.595C27.703 18.2584 26.7032 18.6091 25.678 18.5776H20.5501V6.53286H25.3254C26.329 6.50007 27.3083 6.84178 28.0688 7.49011C28.4292 7.79785 28.7156 8.18112 28.9075 8.61206C29.0993 9.04301 29.1916 9.5108 29.1777 9.98146C29.1907 10.4292 29.1018 10.8742 28.9176 11.2834C28.7334 11.6927 28.4587 12.0558 28.1137 12.346V12.3397ZM25.3254 9.11297H23.3384V11.2493H25.3254C25.4674 11.254 25.6088 11.23 25.7411 11.1787C25.8733 11.1275 25.9936 11.0501 26.0946 10.9514C26.2847 10.7401 26.3898 10.4671 26.3898 10.1843C26.3898 9.9015 26.2847 9.62853 26.0946 9.41727C25.9948 9.31643 25.8749 9.23728 25.7425 9.18488C25.61 9.13249 25.468 9.108 25.3254 9.11297V9.11297ZM25.678 16.0102C25.8314 16.0162 25.9844 15.9912 26.1277 15.9367C26.2709 15.8822 26.4015 15.7993 26.5112 15.6932C26.6175 15.5815 26.7 15.45 26.7539 15.3062C26.8079 15.1625 26.8322 15.0096 26.8253 14.8564C26.8333 14.7031 26.8095 14.5499 26.7555 14.406C26.7015 14.2621 26.6184 14.1306 26.5112 14.0196C26.4029 13.9111 26.2728 13.8262 26.1293 13.7706C25.9857 13.7149 25.832 13.6896 25.678 13.6963H23.3384V16.0102H25.678Z" fill="white"/>
<path d="M106.828 14.5558V18.2161C105.744 18.6089 104.852 18.8053 104.149 18.8053C102.292 18.8053 100.757 18.2102 99.5428 17.0198C98.9714 16.4485 98.5251 15.7819 98.2037 15.0201C97.8942 14.2463 97.7394 13.4667 97.7394 12.681C97.7394 11.8597 97.9001 11.0622 98.2215 10.2885C98.5548 9.51475 98.9952 8.84816 99.5428 8.28871C100.757 7.05076 102.257 6.43178 104.042 6.43178C104.899 6.43178 105.828 6.63414 106.828 7.03885V10.7348C106.125 9.8659 105.227 9.43143 104.132 9.43143C103.286 9.43143 102.572 9.6933 101.989 10.217C101.299 10.8598 100.953 11.6752 100.953 12.6632C100.953 13.6036 101.275 14.3773 101.918 14.9843C102.501 15.5319 103.239 15.8057 104.132 15.8057C105.167 15.8057 106.066 15.3891 106.828 14.5558Z" fill="#FDC300"/>
<path d="M109.978 6.62819H114.799C116.061 6.62819 117.031 6.97934 117.709 7.68163C118.388 8.37203 118.727 9.26478 118.727 10.3599C118.727 11.4074 118.411 12.2347 117.781 12.8417C117.34 13.2584 116.793 13.5321 116.138 13.6631L119.87 18.5375H116.031L113.067 13.9666V18.5375H109.978V6.62819ZM113.067 9.02076V11.9668H113.656C114.323 11.9668 114.823 11.8061 115.156 11.4848C115.418 11.2229 115.549 10.8896 115.549 10.4849C115.549 10.0683 115.412 9.73496 115.138 9.48499C114.829 9.1755 114.335 9.02076 113.656 9.02076H113.067Z" fill="#FDC300"/>
<path d="M124.896 18.5375H121.825L123.843 6.62819H126.896L129.306 12.9846L131.86 6.62819H134.949L136.734 18.5375H133.645L132.77 11.6812L129.896 18.5375H128.664L125.914 11.6812L124.896 18.5375Z" fill="#FDC300"/>
</svg>
