<svg width="584" height="61" viewBox="0 0 584 61" fill="none" xmlns="http://www.w3.org/2000/svg">
<path fill-rule="evenodd" clip-rule="evenodd" d="M7.72301 7.72765C7.06939 8.39864 6.19999 8.82371 5.26404 8.92986C4.32809 9.03601 3.38396 8.81662 2.59372 8.30939C1.80348 7.80215 1.21641 7.03872 0.933285 6.15007C0.650155 5.26142 0.68863 4.303 1.04209 3.43934C1.39556 2.57568 2.04197 1.86064 2.87038 1.41695C3.69878 0.973261 4.65751 0.828577 5.58201 1.00777C6.5065 1.18696 7.33911 1.67883 7.93689 2.39895C8.53468 3.11907 8.86037 4.02254 8.85807 4.95426C8.863 5.46771 8.76525 5.97704 8.57046 6.453C8.37567 6.92896 8.08767 7.36215 7.72301 7.72765V7.72765Z" fill="#FDC300"/>
<path fill-rule="evenodd" clip-rule="evenodd" d="M1.43015 59.6974V18.4683H13.9364V59.6974H1.43015ZM390.504 2.09796L370.917 37.6277V59.8186H357.583V37.6277L337.996 2.09796H353.322L364.388 24.2888L375.484 2.09796H390.504ZM319.329 59.6974L308.324 40.7199H301.979V59.6974H288.645V2.09796H312.003C314.633 2.08589 317.24 2.58986 319.672 3.5808C322.104 4.57174 324.314 6.02998 326.173 7.87103C328.031 9.71207 329.502 11.8994 330.5 14.3064C331.499 16.7134 332.004 19.2924 331.988 21.894C331.964 25.376 330.898 28.7729 328.923 31.6556C326.991 34.6153 324.306 37.02 321.137 38.6281L333.551 59.849L319.329 59.6974ZM301.979 14.2242V29.0787H312.003C312.896 29.0795 313.778 28.8872 314.588 28.5154C315.398 28.1436 316.116 27.6013 316.692 26.9264C317.956 25.4529 318.65 23.5835 318.65 21.6514C318.65 19.7193 317.956 17.85 316.692 16.3765C316.116 15.7016 315.398 15.1593 314.588 14.7875C313.778 14.4157 312.896 14.2234 312.003 14.2242H301.979ZM253.088 46.9649H276.415V59.6671H239.632V2.06762H275.894V14.7698H252.966V24.3192H273.809V36.8698H252.966V46.9649H253.088ZM229.179 1.94633V14.6485H214.313V59.6974H200.825V14.6789H185.836V1.97667L229.179 1.94633ZM179.43 1.94633V14.6485H164.41V59.6974H151.076V14.6789H136.087V1.97667L179.43 1.94633ZM121.037 59.5458L117.971 50.4511H95.5337L92.4684 59.5458H77.9084L97.7407 1.94633H114.753L134.616 59.5458H121.037ZM99.5798 38.1127H113.711L106.415 16.8918L99.5798 38.1127V38.1127ZM64.4826 29.6244C66.7484 30.9559 68.6099 32.8661 69.872 35.1544C71.134 37.4427 71.75 40.0249 71.6553 42.6298C71.7127 44.9219 71.2559 47.198 70.3178 49.2947C69.3797 51.3914 67.9836 53.2565 66.2298 54.756C62.5186 57.9283 57.7375 59.6054 52.8346 59.4548H28.3125V1.85539H51.1487C55.9477 1.69856 60.6309 3.33265 64.268 6.43306C65.9912 7.9047 67.3612 9.73756 68.2785 11.7984C69.1957 13.8593 69.6373 16.0963 69.5709 18.347C69.6327 20.4883 69.2076 22.616 68.3269 24.5731C67.4462 26.5302 66.1325 28.2668 64.4826 29.6547V29.6244ZM51.1487 14.1938H41.6464V24.4101H51.1487C51.8275 24.4324 52.5039 24.3175 53.1363 24.0725C53.7687 23.8276 54.344 23.4576 54.827 22.9853C55.7362 21.975 56.2385 20.6696 56.2385 19.3171C56.2385 17.9647 55.7362 16.6593 54.827 15.649C54.3499 15.1668 53.7764 14.7883 53.143 14.5377C52.5097 14.2871 51.8304 14.17 51.1487 14.1938V14.1938ZM52.8346 47.1771C53.5681 47.2059 54.2999 47.0863 54.9851 46.8256C55.6703 46.565 56.2945 46.1688 56.8194 45.6613C57.3274 45.1274 57.722 44.4981 57.98 43.8108C58.238 43.1235 58.3541 42.3921 58.3214 41.6597C58.3594 40.9267 58.2458 40.1938 57.9875 39.5057C57.7293 38.8177 57.3318 38.1889 56.8194 37.658C56.3015 37.139 55.6792 36.7333 54.9928 36.467C54.3064 36.2007 53.5712 36.0798 52.8346 36.112H41.6464V47.1771H52.8346Z" fill="white"/>
<path d="M440.904 40.2223V57.7262C435.723 59.6047 431.454 60.5439 428.096 60.5439C419.216 60.5439 411.873 57.6978 406.066 52.0054C403.334 49.2731 401.199 46.0854 399.662 42.4423C398.182 38.7423 397.442 35.0138 397.442 31.2568C397.442 27.3291 398.211 23.5152 399.748 19.8152C401.342 16.1152 403.448 12.9275 406.066 10.2521C411.873 4.33201 419.045 1.37199 427.583 1.37199C431.682 1.37199 436.122 2.33968 440.904 4.27508V21.9498C437.545 17.7944 433.247 15.7167 428.01 15.7167C423.969 15.7167 420.553 16.969 417.764 19.4737C414.463 22.5475 412.812 26.4468 412.812 31.1714C412.812 35.6684 414.349 39.3684 417.423 42.2715C420.212 44.89 423.741 46.1992 428.01 46.1992C432.963 46.1992 437.26 44.2069 440.904 40.2223Z" fill="#FDC300"/>
<path d="M455.969 2.31122H479.023C485.057 2.31122 489.696 3.99046 492.941 7.34895C496.185 10.6505 497.808 14.9198 497.808 20.1567C497.808 25.166 496.299 29.1222 493.282 32.0253C491.176 34.0176 488.557 35.3268 485.427 35.953L503.272 59.2632H484.914L470.74 37.4046V59.2632H455.969V2.31122ZM470.74 13.7528V27.8414H473.558C476.746 27.8414 479.137 27.0729 480.73 25.536C481.983 24.2837 482.609 22.6898 482.609 20.7544C482.609 18.7621 481.954 17.1683 480.645 15.9729C479.165 14.4928 476.803 13.7528 473.558 13.7528H470.74Z" fill="#FDC300"/>
<path d="M527.31 59.2632H512.624L522.272 2.31122H536.873L548.4 32.7084L560.61 2.31122H575.382L583.921 59.2632H569.149L564.965 26.4752L551.218 59.2632H545.326L532.177 26.4752L527.31 59.2632Z" fill="#FDC300"/>
</svg>
