<svg width="42" height="42" viewBox="0 0 42 42" fill="none" xmlns="http://www.w3.org/2000/svg">
<path d="M21.0005 0C9.42949 0 0.000488281 9.429 0.000488281 21C0.000488281 32.571 9.42949 42 21.0005 42C32.5715 42 42.0005 32.571 42.0005 21C42.0005 9.429 32.5715 0 21.0005 0ZM26.8595 22.113L19.4465 29.526C19.1315 29.841 18.7325 29.988 18.3335 29.988C17.9345 29.988 17.5355 29.841 17.2205 29.526C16.6115 28.917 16.6115 27.909 17.2205 27.3L23.5205 21L17.2205 14.7C16.6115 14.091 16.6115 13.083 17.2205 12.474C17.8295 11.865 18.8375 11.865 19.4465 12.474L26.8595 19.887C27.4895 20.496 27.4895 21.504 26.8595 22.113Z" fill="#64B6AC"/>
</svg>
