<svg width="15" height="14" viewBox="0 0 15 14" fill="none" xmlns="http://www.w3.org/2000/svg">
<path d="M7.76031 8.71429C8.70708 8.71429 9.47459 7.94678 9.47459 7C9.47459 6.05323 8.70708 5.28572 7.76031 5.28572C6.81353 5.28572 6.04602 6.05323 6.04602 7C6.04602 7.94678 6.81353 8.71429 7.76031 8.71429Z" stroke-miterlimit="10" stroke-linecap="round" stroke-linejoin="round"/>
<path d="M2.04602 7.50286V6.49715C2.04602 5.90286 2.53173 5.41143 3.13173 5.41143C4.16602 5.41143 4.58888 4.68 4.06888 3.78286C3.77173 3.26858 3.94888 2.6 4.46888 2.30286L5.45745 1.73715C5.90888 1.46858 6.49173 1.62858 6.76031 2.08L6.82316 2.18858C7.33745 3.08572 8.18316 3.08572 8.70316 2.18858L8.76602 2.08C9.03459 1.62858 9.61745 1.46858 10.0689 1.73715L11.0574 2.30286C11.5774 2.6 11.7546 3.26858 11.4574 3.78286C10.9374 4.68 11.3603 5.41143 12.3946 5.41143C12.9889 5.41143 13.4803 5.89715 13.4803 6.49715V7.50286C13.4803 8.09715 12.9946 8.58857 12.3946 8.58857C11.3603 8.58857 10.9374 9.32 11.4574 10.2171C11.7546 10.7371 11.5774 11.4 11.0574 11.6971L10.0689 12.2629C9.61745 12.5314 9.03459 12.3714 8.76602 11.92L8.70316 11.8114C8.18888 10.9143 7.34316 10.9143 6.82316 11.8114L6.76031 11.92C6.49173 12.3714 5.90888 12.5314 5.45745 12.2629L4.46888 11.6971C3.94888 11.4 3.77173 10.7314 4.06888 10.2171C4.58888 9.32 4.16602 8.58857 3.13173 8.58857C2.53173 8.58857 2.04602 8.09715 2.04602 7.50286Z" stroke-miterlimit="10" stroke-linecap="round" stroke-linejoin="round"/>
</svg>
