<svg width="18" height="19" viewBox="0 0 18 19" fill="none" xmlns="http://www.w3.org/2000/svg">
<path d="M2.25751 8.915V12.2825C2.25751 15.65 3.60751 17 6.97501 17H11.0175C14.385 17 15.735 15.65 15.735 12.2825V8.915" stroke-linecap="round" stroke-linejoin="round"/>
<path d="M8.99999 9.5C10.3725 9.5 11.385 8.3825 11.25 7.01L10.755 2H7.25249L6.74999 7.01C6.61499 8.3825 7.62749 9.5 8.99999 9.5Z" stroke-linecap="round" stroke-linejoin="round"/>
<path d="M13.7325 9.5C15.2475 9.5 16.3575 8.27 16.2075 6.7625L15.9975 4.7C15.7275 2.75 14.9775 2 13.0125 2H10.725L11.25 7.2575C11.3775 8.495 12.495 9.5 13.7325 9.5Z" stroke-linecap="round" stroke-linejoin="round"/>
<path d="M4.23 9.5C5.4675 9.5 6.585 8.495 6.705 7.2575L6.87 5.6L7.23 2H4.9425C2.9775 2 2.2275 2.75 1.9575 4.7L1.755 6.7625C1.605 8.27 2.715 9.5 4.23 9.5Z" stroke-linecap="round" stroke-linejoin="round"/>
<path d="M9 13.25C7.7475 13.25 7.125 13.8725 7.125 15.125V17H10.875V15.125C10.875 13.8725 10.2525 13.25 9 13.25Z" stroke-linecap="round" stroke-linejoin="round"/>
</svg>
