<svg width="46" height="46" viewBox="0 0 46 46" fill="none" xmlns="http://www.w3.org/2000/svg">
<path d="M16.3999 45H29.5999C40.6 45 45 40.6 45 29.6V16.4C45 5.39996 40.6 0.999954 29.5999 0.999954H16.3999C5.39989 0.999954 0.999878 5.39996 0.999878 16.4V29.6C0.999878 40.6 5.39989 45 16.3999 45Z" stroke="#64B6AC" stroke-width="1.2" stroke-linecap="round" stroke-linejoin="round"/>
<path d="M29.545 34.9167V27.7667" stroke="#64B6AC" stroke-miterlimit="10" stroke-linecap="round" stroke-linejoin="round"/>
<path d="M29.545 14.6583V11.0833" stroke="#64B6AC" stroke-miterlimit="10" stroke-linecap="round" stroke-linejoin="round"/>
<path d="M29.545 24.1917C32.1775 24.1917 34.3117 22.0576 34.3117 19.425C34.3117 16.7925 32.1775 14.6583 29.545 14.6583C26.9124 14.6583 24.7783 16.7925 24.7783 19.425C24.7783 22.0576 26.9124 24.1917 29.545 24.1917Z" stroke="#64B6AC" stroke-miterlimit="10" stroke-linecap="round" stroke-linejoin="round"/>
<path d="M16.455 34.9166V31.3416" stroke="#64B6AC" stroke-miterlimit="10" stroke-linecap="round" stroke-linejoin="round"/>
<path d="M16.455 18.2333V11.0833" stroke="#64B6AC" stroke-miterlimit="10" stroke-linecap="round" stroke-linejoin="round"/>
<path d="M16.455 31.3417C19.0876 31.3417 21.2217 29.2076 21.2217 26.575C21.2217 23.9424 19.0876 21.8083 16.455 21.8083C13.8225 21.8083 11.6884 23.9424 11.6884 26.575C11.6884 29.2076 13.8225 31.3417 16.455 31.3417Z" stroke="#64B6AC" stroke-miterlimit="10" stroke-linecap="round" stroke-linejoin="round"/>
</svg>
