<svg width="36" height="9" viewBox="0 0 36 9" fill="none" xmlns="http://www.w3.org/2000/svg">
<path d="M4.66397 0.148438C4.3046 0.375 0.82022 3.92188 0.75772 4.125C0.624908 4.5625 0.765533 4.75781 2.50772 6.51562C4.46085 8.49219 4.6796 8.67188 5.10928 8.67188C5.63272 8.67188 6.04678 8.11719 5.91397 7.59375C5.88272 7.46875 5.43741 6.95312 4.79678 6.3125L3.7421 5.24219L8.03116 5.21875C12.7265 5.19531 12.5312 5.21094 12.7968 4.71875C13.0624 4.22656 12.7577 3.64844 12.1483 3.50781C11.9843 3.46875 10.0233 3.4375 7.78897 3.4375H3.72647L4.75772 2.39844C5.32022 1.83594 5.82022 1.28906 5.8671 1.19531C6.06241 0.804688 5.85928 0.289062 5.44522 0.109375C5.09366 -0.0390625 4.94522 -0.03125 4.66397 0.148438Z" fill="#626F6A"/>
<path d="M30.7423 0.15625C30.4376 0.335938 30.3283 0.53125 30.3283 0.882812C30.3283 1.22656 30.5705 1.55469 31.6095 2.57812L32.4376 3.39844L28.2033 3.4375C24.3205 3.47656 23.9455 3.48438 23.758 3.61719C23.3751 3.875 23.258 4.4375 23.508 4.82031C23.7814 5.23438 23.8126 5.23438 28.3517 5.23438H32.547L31.4376 6.35156C30.3595 7.44531 30.3283 7.48438 30.3283 7.80469C30.3283 8.08594 30.3751 8.1875 30.5939 8.40625C30.8126 8.625 30.9142 8.67188 31.1955 8.67188C31.5236 8.67188 31.5392 8.65625 33.4376 6.77344C34.4845 5.73438 35.3908 4.77344 35.4533 4.64062C35.6564 4.15625 35.547 4 33.5548 2.01562C31.4455 -0.0859375 31.297 -0.1875 30.7423 0.15625Z" fill="#626F6A"/>
</svg>
