<svg width="38" height="40" viewBox="0 0 38 40" fill="none" xmlns="http://www.w3.org/2000/svg">
<path d="M4.66397 0.148438C4.3046 0.375 0.82022 3.92188 0.75772 4.125C0.624908 4.5625 0.765533 4.75781 2.50772 6.51562C4.46085 8.49219 4.6796 8.67188 5.10928 8.67188C5.63272 8.67188 6.04678 8.11719 5.91397 7.59375C5.88272 7.46875 5.43741 6.95312 4.79678 6.3125L3.7421 5.24219L8.03116 5.21875C12.7265 5.19531 12.5312 5.21094 12.7968 4.71875C13.0624 4.22656 12.7577 3.64844 12.1483 3.50781C11.9843 3.46875 10.0233 3.4375 7.78897 3.4375H3.72647L4.75772 2.39844C5.32022 1.83594 5.82022 1.28906 5.8671 1.19531C6.06241 0.804688 5.85928 0.289062 5.44522 0.109375C5.09366 -0.0390625 4.94522 -0.03125 4.66397 0.148438Z" fill="#626F6A"/>
<path d="M30.7423 0.15625C30.4376 0.335938 30.3283 0.53125 30.3283 0.882812C30.3283 1.22656 30.5705 1.55469 31.6095 2.57812L32.4376 3.39844L28.2033 3.4375C24.3205 3.47656 23.9455 3.48438 23.758 3.61719C23.3751 3.875 23.258 4.4375 23.508 4.82031C23.7814 5.23438 23.8126 5.23438 28.3517 5.23438H32.547L31.4376 6.35156C30.3595 7.44531 30.3283 7.48438 30.3283 7.80469C30.3283 8.08594 30.3751 8.1875 30.5939 8.40625C30.8126 8.625 30.9142 8.67188 31.1955 8.67188C31.5236 8.67188 31.5392 8.65625 33.4376 6.77344C34.4845 5.73438 35.3908 4.77344 35.4533 4.64062C35.6564 4.15625 35.547 4 33.5548 2.01562C31.4455 -0.0859375 31.297 -0.1875 30.7423 0.15625Z" fill="#626F6A"/>
<path d="M17.2029 5.35938C16.0935 5.65625 15.1716 6.57031 14.7732 7.77344C14.6951 8.02344 14.6638 9.6875 14.6248 15.7578L14.5857 23.4297L13.1795 22.3672C11.1326 20.8281 10.7263 20.6016 9.71852 20.3984C7.97633 20.0469 5.85133 20.9922 5.18727 22.3984C5.01539 22.7734 4.97633 22.9609 4.97633 23.4766C4.97633 24.6719 4.56227 24.1953 11.992 31.6094C16.0154 35.6328 18.7732 38.3203 19.0857 38.5391C20.0623 39.2266 21.156 39.6797 22.3279 39.8828C23.2732 40.0469 27.9138 40.0469 29.0388 39.8828C30.2576 39.7031 31.156 39.4141 32.117 38.8984C34.5076 37.6094 36.242 35.4375 36.9295 32.8672C37.2498 31.6719 37.2966 30.6641 37.2654 25.2344C37.242 20.5625 37.2263 20.1641 37.0935 19.8125C36.8513 19.1875 36.5935 18.7891 36.1638 18.375C35.406 17.6641 34.617 17.375 33.5466 17.4375C32.9295 17.4766 32.4607 17.625 31.8826 17.9453C31.8591 17.9609 31.7576 17.7891 31.6482 17.5625C31.5466 17.3359 31.2654 16.9531 31.031 16.7188C30.0076 15.6719 28.4607 15.3828 27.1013 15.9922C26.8591 16.1016 26.6404 16.1797 26.6248 16.1641C26.6091 16.1484 26.5154 15.9766 26.4216 15.7812C26.156 15.25 25.4685 14.5859 24.9138 14.3125C23.9529 13.8438 22.781 13.8047 21.9685 14.2188C21.7966 14.3047 21.6404 14.375 21.617 14.375C21.5935 14.375 21.5779 12.9531 21.5779 11.2266C21.5779 8.30469 21.5701 8.03906 21.4295 7.63281C20.8201 5.85938 18.992 4.88281 17.2029 5.35938ZM18.8904 7.13281C19.2263 7.30469 19.5466 7.64844 19.7107 8.00781C19.8513 8.30469 19.8591 8.6875 19.8591 15.0625C19.8591 22.3125 19.8513 22.1641 20.2576 22.4531C20.617 22.7031 21.2888 22.5547 21.4841 22.1719C21.5466 22.0469 21.5779 21.2266 21.5935 19.4922C21.6248 16.7344 21.6326 16.6797 22.1326 16.1797C22.4685 15.8359 22.8513 15.6797 23.3357 15.6797C24.0232 15.6797 24.5623 16 24.8826 16.6016C25.0466 16.8984 25.0545 17.0391 25.0935 19.5156L25.1326 22.125L25.3904 22.3516C25.7576 22.6875 26.1873 22.6719 26.5466 22.3125L26.8123 22.0469V20.5391C26.8123 19.7031 26.8513 18.8828 26.8982 18.7109C27.1716 17.6797 28.3201 17.1328 29.281 17.5703C29.7263 17.7734 30.1404 18.2891 30.242 18.7656C30.2888 18.9766 30.3279 19.7969 30.3279 20.5938V22.0469L30.5935 22.3125C30.8045 22.5234 30.9216 22.5781 31.1638 22.5781C31.7966 22.5781 32.0466 22.1875 32.0466 21.1953C32.0466 20.6953 32.0857 20.4219 32.1951 20.1953C32.6873 19.1172 33.9998 18.8125 34.906 19.5547C35.5076 20.0547 35.4841 19.7656 35.4841 25.8828C35.4841 31.7188 35.4763 31.8203 35.0779 33.0078C34.4529 34.8516 32.9451 36.5469 31.1482 37.4219C29.6716 38.1484 28.8045 38.2812 25.6248 38.2812C23.2732 38.2812 22.5466 38.2188 21.656 37.9219C20.3591 37.4922 20.5232 37.6406 13.4216 30.5547C9.42946 26.5703 6.82789 23.9219 6.75758 23.7656C6.60914 23.4219 6.72633 23.0625 7.09352 22.7422C7.93727 22 9.20289 21.8516 10.2029 22.3828C10.3904 22.4844 11.5857 23.3438 12.8513 24.2969C15.242 26.0859 15.4685 26.2109 15.867 26C15.9685 25.9453 16.1326 25.7969 16.2185 25.6797C16.3826 25.4609 16.3826 25.4375 16.4216 16.7734L16.4607 8.08594L16.7107 7.71875C17.0701 7.20312 17.6326 6.92969 18.2263 6.97656C18.4685 7 18.7654 7.07031 18.8904 7.13281Z" fill="#626F6A"/>
</svg>
