<svg width="24" height="25" viewBox="0 0 24 25" fill="none" xmlns="http://www.w3.org/2000/svg">
<path d="M21.6698 15.0943L21.2698 20.0943C21.1198 21.6243 20.9998 22.7943 18.2898 22.7943H5.70977C2.99977 22.7943 2.87977 21.6243 2.72977 20.0943L2.32977 15.0943C2.24977 14.2643 2.50977 13.4943 2.97977 12.9043C2.98977 12.8943 2.98977 12.8943 2.99977 12.8843C3.54977 12.2143 4.37977 11.7943 5.30977 11.7943H18.6898C19.6198 11.7943 20.4398 12.2143 20.9798 12.8643C20.9898 12.8743 20.9998 12.8843 20.9998 12.8943C21.4898 13.4843 21.7598 14.2543 21.6698 15.0943Z" stroke="#BDDEDA" stroke-width="1.5" stroke-miterlimit="10"/>
<path d="M3.5 12.2243V7.07434C3.5 3.67434 4.35 2.82434 7.75 2.82434H9.02C10.29 2.82434 10.58 3.20434 11.06 3.84434L12.33 5.54434C12.65 5.96434 12.84 6.22434 13.69 6.22434H16.24C19.64 6.22434 20.49 7.07434 20.49 10.4743V12.2643" stroke="#BDDEDA" stroke-width="1.5" stroke-miterlimit="10" stroke-linecap="round" stroke-linejoin="round"/>
<path d="M9.43018 17.7943H14.5702" stroke="#BDDEDA" stroke-width="1.5" stroke-miterlimit="10" stroke-linecap="round" stroke-linejoin="round"/>
</svg>
