<svg width="18" height="19" viewBox="0 0 18 19" fill="none" xmlns="http://www.w3.org/2000/svg">
<path d="M3.12742 11.975L6.52492 15.3725C7.91992 16.7675 10.1849 16.7675 11.5874 15.3725L14.8799 12.08C16.2749 10.685 16.2749 8.42004 14.8799 7.01754L11.4749 3.62754C10.7624 2.91504 9.77992 2.53254 8.77492 2.58504L5.02492 2.76504C3.52492 2.83254 2.33242 4.02504 2.25742 5.51754L2.07742 9.26754C2.03242 10.28 2.41492 11.2625 3.12742 11.975Z" stroke-linecap="round" stroke-linejoin="round"/>
<path d="M7.12491 9.50004C8.16044 9.50004 8.99991 8.66057 8.99991 7.62504C8.99991 6.5895 8.16044 5.75004 7.12491 5.75004C6.08937 5.75004 5.24991 6.5895 5.24991 7.62504C5.24991 8.66057 6.08937 9.50004 7.12491 9.50004Z"  stroke-linecap="round"/>
</svg>
