<svg width="18" height="19" viewBox="0 0 18 19" fill="none" xmlns="http://www.w3.org/2000/svg">
<path d="M13.53 10.6625C13.215 10.97 13.035 11.4125 13.08 11.885C13.1475 12.695 13.89 13.2875 14.7 13.2875H16.125V14.18C16.125 15.7325 14.8575 17 13.305 17H4.695C3.1425 17 1.875 15.7325 1.875 14.18V9.13251C1.875 7.58001 3.1425 6.3125 4.695 6.3125H13.305C14.8575 6.3125 16.125 7.58001 16.125 9.13251V10.2125H14.61C14.19 10.2125 13.8075 10.3775 13.53 10.6625Z" stroke-linecap="round" stroke-linejoin="round"/>
<path d="M1.875 9.80749V6.38003C1.875 5.48753 2.4225 4.6925 3.255 4.3775L9.21 2.1275C10.14 1.775 11.1375 2.46502 11.1375 3.46252V6.31251" stroke-linecap="round" stroke-linejoin="round"/>
<path d="M16.9191 10.9776V12.5227C16.9191 12.9352 16.5891 13.2726 16.1691 13.2876H14.6991C13.8891 13.2876 13.1466 12.6951 13.0791 11.8851C13.0341 11.4126 13.2141 10.9701 13.5291 10.6626C13.8066 10.3776 14.1891 10.2126 14.6091 10.2126H16.1691C16.5891 10.2276 16.9191 10.5651 16.9191 10.9776Z" stroke-linecap="round" stroke-linejoin="round"/>
<path d="M5.25 9.5H10.5" stroke-linecap="round" stroke-linejoin="round"/>
</svg>
